<svg width="184" height="181" viewBox="0 0 184 181" fill="none" xmlns="http://www.w3.org/2000/svg">
<g clip-path="url(#clip0_682_2064)">
<path d="M22.8024 84.2545C22.6741 86.4434 21.9045 88.1747 20.4935 89.4484C19.0821 90.7287 17.3314 91.3077 15.2414 91.1855C13.8371 91.1034 12.6092 90.7207 11.5576 90.0373C10.5061 89.354 9.71571 88.4477 9.18647 87.3186C8.66344 86.1965 8.44713 84.864 8.53754 83.3212C8.65693 81.284 9.3151 79.6487 10.512 78.4155C11.9556 76.9253 13.808 76.2464 16.0695 76.3786C18.1726 76.5016 19.8532 77.2879 21.1113 78.7375C22.3689 80.1936 22.9326 82.0327 22.8024 84.2545ZM20.6046 84.1657C20.666 83.1174 20.3226 82.2605 19.5744 81.5948C18.631 80.759 17.3781 80.2955 15.8155 80.2041C14.2529 80.1128 12.9955 80.4031 12.0432 81.0751C11.2285 81.656 10.791 82.4607 10.7307 83.4892C10.6701 84.5243 11.0106 85.3744 11.7522 86.0397C12.6389 86.8258 13.8603 87.2644 15.4163 87.3554C16.5107 87.4194 17.4397 87.3149 18.2033 87.042C18.9664 86.7757 19.5483 86.3863 19.9488 85.8739C20.3493 85.3614 20.5679 84.792 20.6046 84.1657Z" fill="#FCFCF8"/>
<path d="M18.3537 92.0775L19.0578 96.6508L12.6854 97.5046C12.2338 97.5651 11.9362 97.6317 11.7927 97.7042C11.65 97.7833 11.5393 97.9014 11.4604 98.0586C11.389 98.2214 11.3682 98.4141 11.3981 98.6366C11.4421 98.9639 11.5672 99.3003 11.7735 99.6458C11.8583 99.781 12.1421 100.133 12.6249 100.701L16.4542 100.188C16.7881 100.143 17.0137 100.086 17.131 100.017C17.2483 99.9484 17.3266 99.8613 17.3658 99.7561C17.4115 99.65 17.4155 99.4562 17.3777 99.1748L17.3012 98.6053L19.1962 98.3514L19.9017 102.935L12.8715 103.876C12.5049 103.926 12.2752 103.976 12.1822 104.029C12.0968 104.087 12.0373 104.165 12.0037 104.263C11.9777 104.366 11.9888 104.598 12.0371 104.958L12.107 105.478L10.212 105.732L9.51532 101.438L10.6739 101.282C10.1711 100.763 9.77256 100.227 9.47831 99.6734C9.19061 99.119 9.0072 98.5472 8.92809 97.9581C8.8648 97.4868 8.88489 97.041 8.98837 96.6207C9.08618 96.2077 9.24471 95.85 9.46396 95.5474C9.68975 95.244 9.96732 95.0036 10.2967 94.8262C10.626 94.6488 11.0623 94.5237 11.6056 94.4509L15.651 93.9089C16.0241 93.8589 16.2566 93.8044 16.3487 93.7454C16.4416 93.693 16.5044 93.6146 16.537 93.5103C16.5762 93.4051 16.5742 93.1922 16.5312 92.8714L16.4586 92.3314L18.3537 92.0775Z" fill="#FCFCF8"/>
<path d="M21.8054 109.312L20.4263 109.714C21.107 110.066 21.5961 110.398 21.8937 110.71C22.1995 111.027 22.4024 111.356 22.5023 111.699C22.5931 112.009 22.6007 112.306 22.5252 112.59C22.4579 112.878 22.3114 113.13 22.0858 113.347C21.8621 113.571 21.5981 113.727 21.2937 113.815C20.8942 113.932 20.4939 113.904 20.0928 113.732C19.6935 113.566 19.4245 113.245 19.2856 112.77C19.2486 112.643 19.2248 112.526 19.2142 112.419C19.2055 112.319 19.2087 112.094 19.224 111.746C19.2265 111.566 19.2121 111.422 19.1806 111.315C19.1325 111.15 18.9483 110.908 18.628 110.588L14.9091 111.672C14.5921 111.764 14.3925 111.846 14.3104 111.918C14.2301 111.997 14.1834 112.096 14.1705 112.217C14.1576 112.338 14.2039 112.579 14.3094 112.94L14.4316 113.359L12.596 113.893L10.8827 108.026L12.7183 107.491L12.86 107.976C12.9618 108.325 13.0437 108.535 13.1058 108.606C13.1698 108.684 13.2558 108.731 13.3639 108.748C13.472 108.764 13.6909 108.725 14.0206 108.629L18.3862 107.357L17.978 105.959L19.8041 105.427C20.1693 106.442 20.7493 107.439 21.5444 108.418L21.8054 109.312Z" fill="#FCFCF8"/>
<path d="M31.3973 120.98L26.7555 123.619C27.3254 123.926 27.7725 124.23 28.0966 124.532C28.4297 124.836 28.7025 125.175 28.9151 125.548C29.471 126.523 29.5745 127.532 29.2255 128.573C28.8206 129.784 27.9293 130.781 26.5514 131.564C25.1562 132.357 23.8213 132.622 22.5465 132.36C21.2807 132.099 20.347 131.441 19.7453 130.385C19.5 129.955 19.3363 129.501 19.2542 129.024C19.1721 128.546 19.175 127.997 19.2627 127.378L18.2744 127.324L17.1953 125.431L27.4434 119.604L26.7272 118.347L28.3979 117.398C29.1225 118.482 29.962 119.395 30.9166 120.136L31.3973 120.98ZM24.8867 124.682L22.2687 126.17C21.7405 126.47 21.3989 126.718 21.2437 126.912C21.0976 127.109 21.0173 127.349 21.003 127.63C20.9919 127.918 21.0665 128.202 21.2268 128.483C21.4982 128.96 21.9092 129.227 22.4598 129.286C23.1506 129.365 23.9265 129.159 24.7877 128.669C25.5972 128.209 26.1364 127.701 26.4051 127.146C26.6205 126.697 26.6137 126.271 26.3848 125.87C26.2573 125.646 26.0682 125.434 25.8177 125.235C25.5705 125.041 25.2602 124.857 24.8867 124.682Z" fill="#FCFCF8"/>
<path d="M31.0438 130.071L34.0291 133.575L29.0763 137.623C28.7252 137.91 28.5078 138.121 28.4241 138.258C28.3446 138.399 28.3124 138.557 28.3277 138.731C28.3523 138.906 28.4353 139.08 28.5769 139.253C28.7851 139.507 29.0668 139.727 29.422 139.912C29.5645 139.982 29.9887 140.132 30.6946 140.361L33.6709 137.928C33.9304 137.716 34.0918 137.551 34.1551 137.431C34.2185 137.311 34.2393 137.197 34.2176 137.087C34.2009 136.973 34.103 136.807 33.924 136.589L33.5618 136.147L35.0347 134.943L38.0262 138.455L32.562 142.92C32.2771 143.153 32.109 143.316 32.0576 143.409C32.0156 143.503 32.0059 143.6 32.0285 143.7C32.0605 143.801 32.1909 143.992 32.4199 144.271L32.7509 144.675L31.2781 145.879L28.4447 142.607L29.3452 141.871C28.6481 141.694 28.0304 141.448 27.4919 141.132C26.9585 140.813 26.5045 140.425 26.1298 139.967C25.83 139.601 25.6142 139.213 25.4823 138.804C25.3495 138.403 25.2969 138.017 25.3247 137.647C25.3575 137.272 25.467 136.924 25.6534 136.602C25.8398 136.28 26.1441 135.946 26.5664 135.601L29.7106 133.032C30.0006 132.795 30.1692 132.627 30.2163 132.529C30.2677 132.436 30.2799 132.337 30.2531 132.232C30.2313 132.122 30.1185 131.943 29.9144 131.694L29.5709 131.275L31.0438 130.071Z" fill="#FCFCF8"/>
<path d="M44.8675 144.462L45.8413 145.331L44.5971 147.933L42.6873 147.244C42.8049 146.574 42.769 145.937 42.5796 145.331C42.3996 144.726 42.1113 144.246 41.7149 143.892C41.4522 143.658 41.2166 143.528 41.0081 143.502C40.7995 143.476 40.6399 143.525 40.5292 143.649C40.4362 143.753 40.3945 143.889 40.404 144.058C40.4184 144.231 40.5251 144.495 40.724 144.851L42.1174 147.403C42.364 147.854 42.567 148.325 42.7264 148.814C42.8857 149.303 42.921 149.762 42.8322 150.19C42.7527 150.618 42.5447 151.02 42.2082 151.396C41.606 152.069 40.8546 152.391 39.954 152.362C38.8978 152.327 37.9187 151.908 37.0167 151.103C36.2436 150.413 35.7445 149.616 35.5195 148.712L34.946 148.935L33.9573 148.053L35.2215 144.801L37.1578 145.461C37.0181 146.324 37.0643 147.144 37.2964 147.921C37.5328 148.693 37.8666 149.271 38.2978 149.656C38.5654 149.895 38.8462 150.034 39.1403 150.074C39.3676 150.098 39.541 150.044 39.6606 149.91C39.7624 149.797 39.8053 149.639 39.7893 149.438C39.7732 149.236 39.6369 148.906 39.3804 148.445L38.2728 146.456C37.6647 145.352 37.3567 144.481 37.349 143.842C37.3506 143.203 37.5684 142.64 38.0023 142.155C38.5602 141.531 39.2798 141.23 40.1611 141.251C41.165 141.274 42.0856 141.659 42.9232 142.407C43.6665 143.07 44.1528 143.807 44.382 144.616L44.8675 144.462Z" fill="#FCFCF8"/>
<path d="M52.5515 144.705C52.9632 144.991 53.2109 145.38 53.2946 145.872C53.3875 146.362 53.2908 146.812 53.0045 147.224C52.7144 147.641 52.3213 147.894 51.8253 147.983C51.3385 148.07 50.8893 147.971 50.4775 147.685C50.0658 147.399 49.8135 147.011 49.7206 146.521C49.6369 146.03 49.7382 145.578 50.0246 145.167C50.3071 144.761 50.6991 144.515 51.2005 144.43C51.7057 144.339 52.156 144.431 52.5515 144.705ZM51.3476 149.241L47.1714 155.242C46.9717 155.529 46.8655 155.716 46.8528 155.803C46.8401 155.891 46.8612 155.982 46.9161 156.076C46.9802 156.169 47.1585 156.317 47.451 156.52L47.8899 156.824L46.7992 158.392L41.7771 154.905L42.8678 153.338L43.2985 153.637C43.5802 153.832 43.7684 153.943 43.8631 153.968C43.9669 153.992 44.0623 153.982 44.1492 153.938C44.2361 153.894 44.353 153.767 44.4999 153.555L47.1955 149.682L45.9928 148.847L47.0552 147.32C47.4983 147.596 47.9394 147.834 48.3784 148.034C48.8229 148.239 49.2334 148.399 49.61 148.516C49.8557 148.59 50.1775 148.653 50.5756 148.705L51.3476 149.241Z" fill="#FCFCF8"/>
<path d="M57.1844 152.701L56.5778 153.873C57.4763 153.764 58.2033 153.748 58.7588 153.827C59.3201 153.908 59.8477 154.076 60.3416 154.331C60.9119 154.625 61.3522 155.005 61.6626 155.471C61.9789 155.939 62.1427 156.407 62.1541 156.875C62.1685 157.337 62.0039 157.9 61.6603 158.564L59.7628 162.23C59.6017 162.542 59.5189 162.752 59.5144 162.862C59.5158 162.974 59.5529 163.075 59.6257 163.165C59.6811 163.231 59.8851 163.355 60.2379 163.537L60.67 163.76L59.7897 165.461L54.613 162.789L55.4933 161.087C55.8903 161.285 56.1153 161.39 56.1684 161.402C56.3367 161.437 56.4686 161.42 56.5643 161.35C56.66 161.28 56.7884 161.09 56.9496 160.778L58.6236 157.543C58.8395 157.126 58.9352 156.833 58.9109 156.664C58.8762 156.385 58.706 156.167 58.4003 156.009C58.1475 155.879 57.8482 155.795 57.5023 155.758C57.1564 155.721 56.6498 155.75 55.9824 155.845L54.1716 159.344C53.974 159.726 53.8935 159.982 53.9302 160.113C53.9669 160.243 54.1411 160.389 54.4527 160.55L54.7349 160.696L53.8546 162.397L48.7308 159.752L49.6111 158.051L49.8668 158.183C50.2725 158.392 50.5315 158.503 50.6438 158.517C50.762 158.533 50.8674 158.509 50.9601 158.445C51.0586 158.385 51.1747 158.225 51.3085 157.966L53.434 153.859L52.1288 153.185L53.0091 151.484C54.1343 151.901 55.2527 152.165 56.3643 152.278L57.1844 152.701Z" fill="#FCFCF8"/>
<path d="M71.7786 165.466L72.6642 167.176C71.6535 167.793 70.7002 168.173 69.8043 168.315C68.9167 168.452 68.0255 168.38 67.1305 168.1C65.6936 167.65 64.6358 166.786 63.9573 165.508C63.2807 164.223 63.1591 162.891 63.5923 161.511C63.8771 160.603 64.3578 159.844 65.0344 159.232C65.713 158.614 66.5093 158.217 67.4233 158.039C68.3393 157.855 69.2921 157.919 70.2815 158.228C70.9118 158.426 71.4566 158.697 71.916 159.041C72.3755 159.386 72.744 159.789 73.0216 160.249C73.3056 160.712 73.488 161.222 73.5688 161.781C73.658 162.335 73.6656 162.884 73.5916 163.428C73.5483 163.698 73.4386 164.114 73.2626 164.674L66.9003 162.682C66.6617 163.486 66.6911 164.208 66.9886 164.848C67.2944 165.484 67.7781 165.905 68.4399 166.112C68.8622 166.244 69.3618 166.263 69.9388 166.166C70.5178 166.064 71.1311 165.83 71.7786 165.466ZM70.7454 162.142C70.8199 161.75 70.8215 161.425 70.7501 161.168C70.687 160.906 70.5586 160.675 70.365 160.476C70.1797 160.273 69.9609 160.132 69.7089 160.053C69.4442 159.97 69.1681 159.956 68.8808 160.011C68.5935 160.067 68.3386 160.184 68.1161 160.364C67.8999 160.545 67.7144 160.805 67.5595 161.144L70.7454 162.142Z" fill="#FCFCF8"/>
<path d="M82.6563 161.179L83.9383 161.38L84.3031 164.225L82.3364 164.679C82.0733 164.056 81.6995 163.543 81.2148 163.139C80.7376 162.73 80.238 162.484 79.7161 162.402C79.3703 162.348 79.1033 162.366 78.9152 162.457C78.7271 162.548 78.6202 162.675 78.5946 162.838C78.573 162.975 78.6117 163.112 78.7107 163.247C78.8162 163.384 79.0479 163.548 79.4058 163.738L81.9462 165.119C82.3958 165.363 82.8192 165.647 83.2163 165.97C83.6134 166.293 83.8904 166.658 84.0472 167.063C84.2115 167.463 84.2547 167.911 84.1767 168.407C84.0371 169.295 83.5834 169.969 82.8156 170.43C81.9149 170.97 80.8708 171.147 79.6834 170.961C78.6656 170.801 77.8188 170.404 77.143 169.77L76.7843 170.265L75.4827 170.061L74.7839 166.662L76.7568 166.17C77.1061 166.967 77.5872 167.627 78.2 168.151C78.8139 168.669 79.4047 168.972 79.9723 169.061C80.3246 169.116 80.6343 169.081 80.9014 168.956C81.1046 168.854 81.22 168.715 81.2477 168.539C81.2713 168.389 81.2222 168.234 81.1002 168.075C80.9782 167.915 80.6859 167.712 80.2232 167.466L78.2248 166.4C77.1215 165.806 76.3943 165.244 76.0431 164.714C75.6994 164.179 75.5779 163.591 75.6785 162.952C75.8078 162.13 76.2461 161.49 76.9933 161.033C77.8442 160.511 78.821 160.337 79.9236 160.51C80.9023 160.663 81.7058 161.017 82.3341 161.57L82.6563 161.179Z" fill="#FCFCF8"/>
<path d="M92.8907 161.773L94.1885 161.799L94.9358 164.569L93.0484 165.284C92.7032 164.703 92.2631 164.245 91.7281 163.91C91.1997 163.569 90.6714 163.394 90.143 163.383C89.793 163.376 89.5309 163.43 89.3569 163.546C89.1828 163.661 89.0941 163.801 89.0908 163.967C89.088 164.105 89.1448 164.235 89.2613 164.356C89.3844 164.478 89.6362 164.608 90.0166 164.748L92.7214 165.773C93.2001 165.955 93.6581 166.179 94.0955 166.445C94.5328 166.711 94.8567 167.035 95.0671 167.416C95.2842 167.79 95.3877 168.228 95.3777 168.73C95.3597 169.628 95.0015 170.358 94.3032 170.919C93.484 171.576 92.4734 171.893 91.2714 171.869C90.2411 171.849 89.3481 171.57 88.5925 171.033L88.3042 171.572L86.9866 171.546L85.8332 168.272L87.7214 167.517C88.1756 168.259 88.7419 168.849 89.4203 169.285C90.0988 169.715 90.7254 169.936 91.3 169.947C91.6566 169.954 91.9587 169.878 92.2064 169.717C92.394 169.589 92.4895 169.436 92.4931 169.257C92.4962 169.105 92.4264 168.959 92.2839 168.817C92.1414 168.676 91.8242 168.514 91.3323 168.332L89.2074 167.547C88.0335 167.107 87.2367 166.648 86.8168 166.171C86.4036 165.687 86.2035 165.121 86.2165 164.474C86.2331 163.642 86.5807 162.949 87.2591 162.394C88.0315 161.762 88.9758 161.457 90.092 161.479C91.0826 161.499 91.9268 161.741 92.6244 162.204L92.8907 161.773Z" fill="#FCFCF8"/>
<path d="M105.11 155.835C105.603 155.741 106.055 155.837 106.466 156.122C106.882 156.399 107.136 156.784 107.23 157.277C107.325 157.777 107.231 158.235 106.948 158.652C106.669 159.061 106.283 159.312 105.79 159.406C105.297 159.5 104.843 159.408 104.427 159.131C104.016 158.846 103.764 158.457 103.67 157.964C103.577 157.477 103.676 157.025 103.966 156.606C104.255 156.182 104.637 155.925 105.11 155.835ZM107.513 159.875L108.883 167.067C108.948 167.411 109.008 167.618 109.062 167.688C109.116 167.759 109.195 167.808 109.301 167.834C109.413 167.854 109.643 167.83 109.994 167.763L110.519 167.664L110.877 169.542L104.862 170.684L104.505 168.806L105.021 168.708C105.358 168.644 105.569 168.587 105.654 168.538C105.744 168.48 105.803 168.405 105.832 168.312C105.862 168.219 105.852 168.046 105.804 167.793L104.92 163.151L103.48 163.425L103.131 161.595C103.639 161.472 104.118 161.324 104.57 161.151C105.027 160.976 105.43 160.796 105.777 160.608C106.003 160.485 106.273 160.299 106.589 160.051L107.513 159.875Z" fill="#FCFCF8"/>
<path d="M116.301 157.664L117.538 157.273L119.135 159.656L117.577 160.938C117.063 160.498 116.499 160.205 115.885 160.06C115.276 159.906 114.719 159.909 114.215 160.068C113.881 160.173 113.65 160.309 113.523 160.474C113.395 160.639 113.356 160.8 113.406 160.957C113.447 161.089 113.543 161.194 113.692 161.272C113.848 161.347 114.128 161.39 114.533 161.401L117.424 161.506C117.936 161.524 118.441 161.59 118.941 161.702C119.441 161.814 119.851 162.017 120.173 162.31C120.498 162.595 120.737 162.977 120.888 163.456C121.16 164.312 121.054 165.117 120.573 165.872C120.008 166.757 119.152 167.38 118.006 167.742C117.024 168.053 116.089 168.075 115.201 167.808L115.101 168.411L113.844 168.808L111.701 166.077L113.248 164.758C113.916 165.315 114.641 165.692 115.424 165.888C116.205 166.078 116.869 166.086 117.417 165.913C117.757 165.806 118.018 165.637 118.201 165.406C118.338 165.224 118.379 165.048 118.325 164.878C118.28 164.733 118.166 164.617 117.986 164.528C117.806 164.44 117.453 164.388 116.929 164.374L114.665 164.31C113.412 164.269 112.51 164.09 111.959 163.773C111.412 163.447 111.041 162.975 110.846 162.358C110.595 161.565 110.701 160.797 111.166 160.054C111.695 159.209 112.492 158.618 113.556 158.281C114.5 157.983 115.377 157.941 116.187 158.157L116.301 157.664Z" fill="#FCFCF8"/>
<path d="M127.28 147.463L132.964 157.544C133.155 157.883 133.283 158.076 133.348 158.123C133.453 158.215 133.589 158.248 133.756 158.222C133.861 158.208 134.104 158.094 134.483 157.881L134.785 157.711L135.723 159.374L130.386 162.376L129.448 160.713L129.776 160.529C130.121 160.335 130.331 160.19 130.406 160.095C130.478 159.994 130.511 159.885 130.505 159.767C130.496 159.644 130.399 159.418 130.214 159.091L125.88 151.405L124.605 152.123L123.662 150.451C124.652 149.804 125.579 148.964 126.444 147.933L127.28 147.463Z" fill="#FCFCF8"/>
<path d="M131.31 144.767C131.723 144.481 132.174 144.385 132.666 144.478C133.158 144.563 133.548 144.811 133.834 145.223C134.124 145.641 134.225 146.098 134.135 146.594C134.047 147.081 133.797 147.467 133.384 147.753C132.971 148.039 132.519 148.14 132.026 148.055C131.535 147.962 131.146 147.709 130.86 147.296C130.577 146.89 130.483 146.436 130.579 145.937C130.67 145.431 130.914 145.041 131.31 144.767ZM135.15 147.482L139.326 153.495C139.525 153.782 139.664 153.947 139.742 153.99C139.82 154.032 139.912 154.044 140.02 154.026C140.13 153.998 140.331 153.883 140.624 153.68L141.064 153.375L142.155 154.945L137.122 158.432L136.032 156.862L136.463 156.563C136.746 156.367 136.915 156.229 136.972 156.15C137.031 156.061 137.055 155.968 137.044 155.871C137.033 155.774 136.954 155.62 136.807 155.408L134.112 151.527L132.907 152.362L131.844 150.833C132.258 150.514 132.636 150.184 132.978 149.842C133.325 149.497 133.619 149.169 133.861 148.857C134.017 148.652 134.188 148.373 134.376 148.018L135.15 147.482Z" fill="#FCFCF8"/>
<path d="M142.03 142.19L143.392 143.789L142.169 144.828L145.31 148.516C145.563 148.812 145.728 148.98 145.804 149.019C145.912 149.074 146.024 149.088 146.138 149.06C146.253 149.032 146.436 148.911 146.688 148.697L147.111 148.338L148.35 149.793L143.685 153.758L142.445 152.302L142.815 151.988C143.117 151.731 143.288 151.56 143.328 151.474C143.368 151.388 143.37 151.295 143.336 151.194C143.303 151.084 143.156 150.875 142.895 150.568L139.753 146.881L138.636 147.83L137.274 146.231L138.392 145.282L137.724 144.497C137.248 143.939 136.963 143.406 136.868 142.897C136.744 142.283 136.828 141.627 137.118 140.93C137.409 140.232 137.912 139.58 138.626 138.972C139.381 138.331 140.109 137.989 140.811 137.947C141.509 137.901 142.023 138.071 142.352 138.458C142.614 138.765 142.729 139.1 142.7 139.462C142.672 139.816 142.499 140.127 142.182 140.397C142.056 140.504 141.918 140.591 141.767 140.658C141.617 140.717 141.457 140.753 141.287 140.767C141.169 140.781 140.933 140.764 140.581 140.717C140.251 140.677 140.041 140.664 139.951 140.681C139.837 140.699 139.747 140.737 139.682 140.792C139.511 140.938 139.443 141.134 139.48 141.38C139.517 141.617 139.737 141.972 140.139 142.445L140.807 143.229L142.03 142.19Z" fill="#FCFCF8"/>
<path d="M153.544 139.072L155.47 138.989C155.604 140.165 155.547 141.188 155.298 142.06C155.048 142.922 154.607 143.699 153.975 144.392C152.961 145.505 151.73 146.1 150.284 146.177C148.833 146.25 147.572 145.799 146.502 144.826C145.798 144.186 145.312 143.431 145.042 142.561C144.767 141.686 144.742 140.797 144.966 139.894C145.185 138.987 145.644 138.15 146.343 137.384C146.788 136.896 147.264 136.516 147.77 136.245C148.277 135.973 148.798 135.809 149.333 135.751C149.872 135.688 150.413 135.738 150.954 135.899C151.494 136.052 151.996 136.276 152.459 136.572C152.686 136.725 153.016 136.999 153.451 137.394L148.96 142.321C149.589 142.876 150.257 143.153 150.963 143.153C151.669 143.143 152.256 142.882 152.723 142.369C153.021 142.042 153.248 141.597 153.404 141.034C153.555 140.466 153.602 139.812 153.544 139.072ZM150.091 138.61C149.767 138.377 149.473 138.239 149.209 138.196C148.944 138.143 148.681 138.162 148.418 138.254C148.156 138.336 147.935 138.475 147.757 138.67C147.57 138.875 147.442 139.119 147.371 139.403C147.3 139.687 147.299 139.967 147.368 140.244C147.441 140.516 147.599 140.794 147.842 141.077L150.091 138.61Z" fill="#FCFCF8"/>
<path d="M151.753 122.475C152.004 122.04 152.371 121.76 152.855 121.635C153.337 121.501 153.795 121.559 154.23 121.81C154.671 122.064 154.956 122.434 155.087 122.921C155.215 123.399 155.154 123.855 154.903 124.289C154.652 124.724 154.286 125.009 153.804 125.143C153.32 125.268 152.861 125.205 152.426 124.955C151.997 124.707 151.718 124.338 151.591 123.845C151.458 123.349 151.512 122.892 151.753 122.475ZM156.384 123.29L162.728 126.944C163.031 127.119 163.227 127.209 163.315 127.214C163.404 127.219 163.493 127.191 163.582 127.128C163.67 127.056 163.802 126.866 163.981 126.557L164.248 126.094L165.905 127.048L162.844 132.35L161.187 131.396L161.45 130.941C161.621 130.644 161.716 130.447 161.734 130.35C161.749 130.244 161.731 130.15 161.679 130.067C161.628 129.984 161.491 129.879 161.268 129.75L157.173 127.392L156.44 128.661L154.826 127.732C155.064 127.267 155.265 126.807 155.428 126.352C155.595 125.892 155.721 125.469 155.806 125.084C155.859 124.833 155.895 124.506 155.913 124.105L156.384 123.29Z" fill="#FCFCF8"/>
<path d="M156.447 115.902L159.56 117.265L160.842 114.344L162.775 115.191L161.492 118.112L164.65 119.495C165.364 119.808 165.84 119.973 166.077 119.99C166.311 119.999 166.534 119.927 166.745 119.775C167.028 119.574 167.247 119.298 167.401 118.948C167.674 118.325 167.744 117.616 167.609 116.822L169.551 117.672C169.568 118.307 169.534 118.862 169.448 119.336C169.359 119.802 169.205 120.283 168.988 120.779C168.741 121.341 168.452 121.809 168.122 122.184C167.788 122.549 167.424 122.83 167.028 123.024C166.629 123.21 166.255 123.298 165.905 123.289C165.559 123.274 165.104 123.144 164.541 122.897L160.222 121.005L159.625 122.366L157.882 121.603C157.937 121.05 157.896 120.538 157.756 120.066C157.611 119.591 157.378 119.161 157.057 118.775C156.739 118.384 156.279 118.009 155.679 117.652L156.447 115.902Z" fill="#FCFCF8"/>
<path d="M163.221 106.621L163.582 105.375L166.451 105.368L166.654 107.375C166.003 107.558 165.447 107.865 164.985 108.296C164.519 108.718 164.213 109.183 164.066 109.69C163.969 110.027 163.953 110.294 164.02 110.492C164.086 110.69 164.199 110.811 164.357 110.857C164.491 110.896 164.631 110.874 164.778 110.793C164.927 110.705 165.119 110.496 165.352 110.165L167.042 107.817C167.341 107.402 167.676 107.017 168.046 106.663C168.416 106.31 168.813 106.08 169.235 105.976C169.653 105.862 170.103 105.875 170.585 106.015C171.448 106.264 172.06 106.798 172.421 107.617C172.844 108.578 172.889 109.636 172.555 110.79C172.269 111.78 171.768 112.57 171.054 113.162L171.5 113.579L171.134 114.845L167.674 115.114L167.433 113.096C168.267 112.849 168.983 112.454 169.58 111.911C170.171 111.367 170.546 110.819 170.706 110.267C170.805 109.924 170.809 109.613 170.718 109.332C170.643 109.118 170.519 108.986 170.348 108.936C170.202 108.894 170.042 108.924 169.869 109.025C169.695 109.126 169.457 109.391 169.154 109.819L167.846 111.668C167.117 112.688 166.468 113.34 165.898 113.622C165.324 113.896 164.726 113.943 164.104 113.764C163.305 113.533 162.725 113.019 162.365 112.22C161.954 111.311 161.904 110.321 162.214 109.248C162.489 108.297 162.941 107.544 163.569 106.99L163.221 106.621Z" fill="#FCFCF8"/>
<path d="M171.503 95.2333L173.039 94.0703C173.818 94.9614 174.354 95.8362 174.645 96.6949C174.93 97.5462 175.01 98.4366 174.885 99.366C174.684 100.858 174.011 102.047 172.865 102.933C171.713 103.818 170.42 104.164 168.987 103.971C168.044 103.845 167.214 103.5 166.497 102.937C165.773 102.373 165.247 101.656 164.918 100.786C164.582 99.9144 164.483 98.9649 164.621 97.9373C164.71 97.2827 164.885 96.6999 165.147 96.1887C165.409 95.6775 165.743 95.246 166.151 94.8942C166.559 94.5359 167.031 94.2695 167.568 94.095C168.099 93.9131 168.639 93.8124 169.188 93.7929C169.461 93.7897 169.89 93.8272 170.472 93.9054L169.582 100.513C170.415 100.611 171.122 100.46 171.703 100.058C172.278 99.6488 172.611 99.1006 172.704 98.4133C172.763 97.9748 172.696 97.4794 172.504 96.9272C172.305 96.374 171.972 95.8094 171.503 95.2333ZM168.401 96.8157C168.002 96.8088 167.682 96.8624 167.44 96.9765C167.192 97.0832 166.986 97.2488 166.823 97.4734C166.654 97.6905 166.552 97.93 166.516 98.1918C166.479 98.4667 166.512 98.741 166.615 99.0148C166.718 99.2885 166.877 99.5197 167.092 99.7085C167.307 99.8907 167.595 100.029 167.955 100.124L168.401 96.8157Z" fill="#FCFCF8"/>
<path d="M160.854 87.286L172.443 87.4739C172.832 87.4802 173.064 87.4675 173.137 87.4356C173.27 87.3915 173.367 87.2907 173.429 87.1332C173.47 87.0348 173.494 86.7677 173.501 86.3319L173.507 85.9852L175.419 86.0162L175.319 92.1475L173.407 92.1165L173.414 91.7401C173.42 91.3439 173.401 91.0893 173.357 90.9763C173.306 90.8632 173.228 90.7793 173.123 90.7248C173.012 90.6701 172.768 90.6398 172.391 90.6337L163.556 90.4904L163.532 91.9564L161.61 91.9252C161.55 90.7419 161.293 89.5158 160.838 88.2468L160.854 87.286Z" fill="#FCFCF8"/>
<path d="M164.974 79.0287L167.067 78.8572L167.199 80.4567L172.027 80.061C172.415 80.0292 172.648 79.9936 172.724 79.9542C172.832 79.899 172.908 79.8165 172.952 79.7069C172.996 79.5973 173.005 79.3779 172.977 79.0488L172.932 78.4959L174.838 78.3397L175.339 84.4414L173.433 84.5976L173.393 84.1138C173.361 83.7188 173.322 83.4802 173.275 83.3979C173.229 83.3155 173.154 83.2587 173.052 83.2273C172.943 83.1898 172.688 83.1876 172.286 83.2205L167.458 83.6161L167.578 85.0773L165.485 85.2488L165.365 83.7876L164.338 83.8717C163.608 83.9316 163.008 83.8515 162.539 83.6315C161.968 83.3735 161.484 82.9228 161.086 82.2795C160.689 81.6362 160.452 80.8472 160.375 79.9125C160.294 78.9252 160.441 78.1345 160.816 77.5405C161.185 76.9471 161.623 76.6296 162.13 76.588C162.531 76.5551 162.871 76.6565 163.149 76.8922C163.419 77.1218 163.572 77.444 163.606 77.8586C163.619 78.0232 163.61 78.1863 163.576 78.3481C163.536 78.5038 163.472 78.6548 163.385 78.8011C163.327 78.9052 163.177 79.0866 162.933 79.3451C162.708 79.5888 162.575 79.7521 162.536 79.8349C162.485 79.9385 162.462 80.033 162.469 80.1186C162.488 80.3424 162.608 80.5115 162.829 80.6259C163.044 80.7342 163.46 80.763 164.079 80.7123L165.106 80.6282L164.974 79.0287Z" fill="#FCFCF8"/>
<path d="M55.0754 10.3029L61.3767 7.89321L62.061 9.6785L61.4411 9.91558C61.1573 10.0241 60.9668 10.1359 60.8694 10.2509C60.7782 10.3635 60.7296 10.4952 60.7238 10.646C60.7155 10.7905 60.7859 11.0571 60.9348 11.4456L62.736 16.1447C63.0717 17.0204 63.4086 17.641 63.7468 18.0066C64.0911 18.3699 64.4828 18.5984 64.9219 18.6921C65.3648 18.7773 65.8391 18.7232 66.345 18.5297C66.8508 18.3363 67.2538 18.0407 67.5541 17.6431C67.8543 17.2454 68.0156 16.8267 68.038 16.3868C68.0641 15.9384 67.9094 15.2764 67.5737 14.4007L65.5882 9.22058C65.5054 9.00475 65.4186 8.86119 65.3276 8.78992C65.2063 8.69489 65.0745 8.6463 64.9322 8.64415C64.8317 8.64017 64.6056 8.70541 64.254 8.83988L63.7543 9.03096L63.07 7.24567L68.409 5.20396L69.0933 6.98925L68.6769 7.14848C68.2636 7.30653 68.0171 7.4291 67.9373 7.51618C67.8176 7.64679 67.751 7.79599 67.7375 7.96378C67.7236 8.07515 67.797 8.34051 67.9578 8.75985L69.9079 13.8475C70.2672 14.7848 70.4329 15.623 70.4049 16.362C70.3596 17.3692 70.0158 18.2714 69.3736 19.0685C68.7352 19.8571 67.8515 20.4672 66.7227 20.8989C65.9269 21.2032 65.1683 21.3555 64.4469 21.3556C63.7232 21.3495 63.0375 21.2122 62.39 20.9437C61.7463 20.6666 61.2319 20.3118 60.8468 19.8793C60.4679 19.4444 60.0894 18.7336 59.7112 17.7469L57.8 12.761C57.6251 12.3047 57.4881 12.0212 57.3892 11.9106C57.2878 11.7938 57.1698 11.7258 57.0351 11.7066C56.9004 11.6873 56.6727 11.7391 56.352 11.8617L55.7598 12.0882L55.0754 10.3029Z" fill="#FCFCF8"/>
<path d="M71.8715 4.31402L77.4153 3.41022L82.7147 10.7166L81.9191 5.84775C81.8509 5.4306 81.7855 5.17361 81.7229 5.07676C81.6321 4.93096 81.5265 4.83776 81.4061 4.79717C81.2847 4.75005 81.0643 4.75253 80.7449 4.8046L80.08 4.91299L79.7717 3.02607L85.4034 2.10793L85.7118 3.99485L85.086 4.09687C84.7731 4.14788 84.5541 4.22039 84.429 4.3144C84.3103 4.40735 84.235 4.51999 84.2031 4.65233C84.1712 4.78468 84.1888 5.05616 84.2559 5.46678L85.9797 16.0159L83.1736 16.4734L76.4666 7.24856L77.6153 14.2781C77.6813 14.6822 77.7462 14.9359 77.8099 15.0393C77.8802 15.1416 77.9826 15.2152 78.1171 15.2602C78.2581 15.3042 78.485 15.3006 78.7979 15.2496L79.453 15.1428L79.7613 17.0297L74.1002 17.9526L73.7919 16.0657L74.3785 15.9701C74.7044 15.917 74.9218 15.8548 75.0306 15.7835C75.1449 15.7046 75.2267 15.5909 75.276 15.4424C75.3253 15.2938 75.3276 15.0826 75.2829 14.8089L74.0048 6.98745C73.9558 6.68763 73.8875 6.47459 73.8 6.34834C73.7114 6.21558 73.6069 6.12889 73.4865 6.0883C73.365 6.04119 73.1739 6.03888 72.9132 6.08139L72.1799 6.20094L71.8715 4.31402Z" fill="#FCFCF8"/>
<path d="M88.2893 2.16513L95.0248 2.05592L95.0558 3.96762L94.4417 3.97757C94.0851 3.98336 93.848 4.02023 93.7302 4.08819C93.6189 4.14944 93.5346 4.24988 93.4775 4.38952C93.4268 4.52245 93.4045 4.78041 93.4108 5.16341L93.535 12.8102C93.5418 13.2262 93.5693 13.4933 93.6174 13.6114C93.6656 13.7295 93.7462 13.8141 93.8593 13.8651C93.9993 13.9421 94.2079 13.9783 94.4853 13.9738L95.2183 13.9619L95.2493 15.8736L88.5138 15.9828L88.4828 14.0711L89.0275 14.0623C89.4171 14.056 89.6709 14.0254 89.789 13.9707C89.9068 13.9093 89.9912 13.8188 90.0421 13.6991C90.0995 13.5727 90.1253 13.3278 90.1194 12.9647L89.9946 5.28815C89.9876 4.85893 89.9534 4.57876 89.8918 4.44766C89.8367 4.30984 89.7425 4.20569 89.6093 4.13519C89.516 4.08386 89.291 4.06109 88.9345 4.06687L88.3203 4.07683L88.2893 2.16513Z" fill="#FCFCF8"/>
<path d="M105.872 2.82791C108.043 3.15643 109.698 4.08246 110.839 5.60601C111.985 7.13054 112.401 8.9291 112.087 11.0017C111.876 12.3943 111.381 13.5835 110.603 14.5693C109.824 15.555 108.848 16.26 107.673 16.6842C106.506 17.1028 105.158 17.1963 103.628 16.9648C101.607 16.659 100.037 15.8529 98.9177 14.5465C97.5649 12.9707 97.0586 11.0615 97.3988 8.81895C97.7151 6.73329 98.654 5.12976 100.215 4.00834C101.783 2.88792 103.669 2.49444 105.872 2.82791ZM105.581 5.01103C104.542 4.8537 103.656 5.11754 102.923 5.80256C102.003 6.66651 101.425 7.87325 101.19 9.42278C100.955 10.9723 101.128 12.2526 101.711 13.2637C102.215 14.1292 102.977 14.6392 103.997 14.7935C105.024 14.9489 105.903 14.6873 106.634 14.0088C107.5 13.1968 108.05 12.0193 108.284 10.4763C108.448 9.39097 108.43 8.45516 108.228 7.66886C108.033 6.88355 107.698 6.26775 107.224 5.82146C106.75 5.37518 106.202 5.10504 105.581 5.01103Z" fill="#FCFCF8"/>
<path d="M116.993 5.49364L122.218 7.5137L123.08 16.4691L124.858 11.8817C125.011 11.4887 125.084 11.2347 125.079 11.1199C125.075 10.9487 125.031 10.8153 124.948 10.7197C124.868 10.6179 124.677 10.5088 124.376 10.3924L123.749 10.1502L124.438 8.37231L129.746 10.4244L129.057 12.2023L128.467 11.9743C128.172 11.8603 127.947 11.8121 127.792 11.8298C127.643 11.8498 127.521 11.9087 127.427 12.0064C127.333 12.104 127.21 12.3463 127.061 12.7332L123.209 22.6725L120.564 21.65L119.461 10.335L116.894 16.9582C116.746 17.3389 116.674 17.5898 116.677 17.7108C116.685 17.8342 116.736 17.9492 116.829 18.0557C116.928 18.1646 117.125 18.2761 117.42 18.3901L118.037 18.6288L117.348 20.4067L112.013 18.3438L112.702 16.566L113.255 16.7798C113.562 16.8985 113.78 16.9547 113.91 16.9483C114.048 16.9382 114.176 16.8817 114.294 16.7789C114.411 16.676 114.52 16.4957 114.62 16.2377L117.476 8.86844C117.585 8.58595 117.634 8.36834 117.623 8.21563C117.614 8.05677 117.568 7.92952 117.485 7.83388C117.404 7.73209 117.241 7.63369 116.995 7.53869L116.304 7.27148L116.993 5.49364Z" fill="#FCFCF8"/>
<path d="M43.9375 41.2522V104.64C44.2297 130.352 65.5893 151.144 91.9156 151.144C118.242 151.144 139.593 130.377 139.878 104.665V41.2522H43.9375ZM136.688 104.13C136.428 128.31 116.505 147.837 91.9481 147.837C67.3909 147.837 47.4596 128.294 47.1999 104.13V44.5027H136.688V104.13Z" fill="#FCFCF8"/>
<path d="M93.6043 137.964H90.2852V148.315H93.6043V137.964Z" fill="#FCFCF8"/>
<path d="M69.9702 119.523H49.9414V122.774H69.9702V119.523Z" fill="#FCFCF8"/>
<path d="M62.9427 122.182H59.6641V127.078H62.9427V122.182Z" fill="#FCFCF8"/>
<path d="M133.751 119.515H113.512V122.773H133.751V119.515Z" fill="#FCFCF8"/>
<path d="M123.631 122.547H120.336V127.078H123.631V122.547Z" fill="#FCFCF8"/>
<path d="M60.7773 135.792L74.1434 128.78L75.9856 131.495L63.4392 138.085L60.7773 135.792Z" fill="#FCFCF8"/>
<path d="M81.0953 135.638L78.9609 139.302L81.7526 140.931L84.0899 136.999L81.0953 135.638Z" fill="#FCFCF8"/>
<path d="M99.7969 136.894L102.15 140.939L104.974 139.293L102.743 135.475L99.7969 136.894Z" fill="#FCFCF8"/>
<path d="M108.18 131.65L120.491 138.134L122.917 135.743L110.273 129.08L108.18 131.65Z" fill="#FCFCF8"/>
<path d="M101.864 101.698L100.168 104.543C102.323 106.219 103.906 108.522 104.696 111.133C105.487 113.745 105.447 116.538 104.583 119.126C103.718 121.714 102.07 123.971 99.8678 125.585C97.6652 127.199 95.0155 128.091 92.2842 128.137C89.5528 128.184 86.8741 127.383 84.6174 125.846C82.3607 124.308 80.6369 122.109 79.6839 119.552C78.7308 116.995 78.5952 114.206 79.2958 111.568C79.9965 108.931 81.4989 106.576 83.5959 104.827L81.8187 102.006C79.1155 104.136 77.1483 107.058 76.1933 110.362C75.2384 113.665 75.3436 117.185 76.4944 120.426C77.6451 123.667 79.7835 126.466 82.609 128.431C85.4346 130.396 88.8054 131.427 92.2478 131.379C95.6903 131.332 99.0314 130.209 101.802 128.167C104.572 126.126 106.633 123.268 107.693 119.997C108.754 116.726 108.763 113.204 107.717 109.928C106.671 106.652 104.624 103.785 101.864 101.731V101.698Z" fill="#FCFCF8"/>
<path d="M107.068 96.9562L104.374 98.9908C107.699 101.578 110.132 105.137 111.333 109.173C112.535 113.208 112.444 117.517 111.075 121.498C109.706 125.48 107.126 128.935 103.695 131.38C100.265 133.826 96.1556 135.141 91.9409 135.141C87.7262 135.141 83.6167 133.826 80.1864 131.38C76.756 128.935 74.176 125.48 72.8067 121.498C71.4375 117.517 71.3472 113.208 72.5487 109.173C73.7501 105.137 76.1832 101.578 79.5081 98.9908L77.1384 96.705C73.3729 99.7545 70.642 103.891 69.3191 108.55C67.9961 113.208 68.1457 118.161 69.7473 122.731C71.349 127.301 74.3245 131.266 78.2673 134.083C82.2101 136.9 86.9277 138.433 91.7753 138.471C96.623 138.509 101.364 137.051 105.351 134.296C109.337 131.541 112.375 127.623 114.048 123.079C115.722 118.534 115.949 113.585 114.7 108.906C113.45 104.227 110.785 100.048 107.068 96.94V96.9562Z" fill="#FCFCF8"/>
<path d="M90.4129 128.107L90.3561 97.556L87.8972 100.142L85.5437 97.8802L90.3724 92.8464L90.3237 59.1177L83.0117 49.5609L85.5843 47.583L91.9549 55.9078L98.3417 47.5911L100.922 49.5527L93.5698 59.1258L93.6104 92.7735L98.5202 97.8802L96.1911 100.126L93.6266 97.4668L93.6591 128.318L90.4129 128.107Z" fill="#FCFCF8"/>
<path d="M83.4107 124.978V111.093C83.4413 110.309 83.4223 109.524 83.3539 108.742C83.2322 107.543 82.4855 105.411 80.335 102.258C78.9822 100.166 76.99 98.5652 74.6542 97.694C73.3726 97.2236 72.0568 96.8523 70.7182 96.5834L65.4027 102.509L62.9681 100.328L66.4982 96.4213C66.4982 96.4213 65.0618 96.5024 64.4532 96.5672C63.8445 96.6321 62.1971 96.7618 61.4748 96.8509L59.1376 97.1103L56.6381 97.4427L56.1836 94.2003C56.1836 94.2003 58.3423 93.9409 60.5902 93.6977C62.8382 93.4546 64.3314 93.2681 66.5064 93.2033C68.6856 93.0814 70.8712 93.267 72.9987 93.7545C75.279 94.2867 77.4219 95.292 79.2881 96.705C81.2241 98.1416 82.8314 99.9737 84.0031 102.079C85.0675 103.577 85.8511 105.255 86.316 107.032C86.5661 108.826 86.6692 110.636 86.6244 112.447V128.091L83.4918 126.778L83.4107 124.978Z" fill="#FCFCF8"/>
<path d="M100.542 125.448V110.906C100.43 109.376 100.623 107.839 101.11 106.383C101.831 104.402 102.934 102.582 104.357 101.025C105.865 99.5774 107.629 98.4204 109.559 97.6128C110.603 97.1799 111.691 96.8619 112.805 96.6644L119.614 102.598L121.797 100.166L117.422 96.332C118.803 96.3087 120.183 96.3845 121.553 96.559C124.799 96.867 128.175 97.4669 128.175 97.4669L128.8 94.2245C128.8 94.2245 125.351 93.6085 122.089 93.3085C119.721 93.0375 117.336 92.9589 114.955 93.0735C112.517 93.2107 110.121 93.776 107.879 94.7433C105.521 95.8038 103.391 97.3094 101.606 99.1772C100.117 100.902 98.9538 102.882 98.1727 105.022C97.6631 106.543 97.3734 108.128 97.3125 109.731V127.394L99.9662 126.478L100.542 125.448Z" fill="#FCFCF8"/>
<path d="M53.0273 86.8967L53.3925 90.139C53.3925 90.139 58.7406 89.6284 62.2383 89.3852C65.2236 89.0898 68.228 89.0356 71.222 89.2231C73.5856 89.457 75.9077 90.0022 78.1282 90.8442C79.0204 91.1967 79.8879 91.6083 80.7251 92.0763C81.3447 92.5481 82.0783 92.8474 82.8514 92.9437C83.6629 92.9437 84.4744 92.7167 84.7422 92.0763C85.0635 91.1642 85.1555 90.1872 85.0101 89.2312C84.8532 87.9078 84.5817 86.6006 84.1985 85.3241C83.9229 84.4693 83.581 83.6373 83.176 82.8356C82.7783 82.0817 81.6178 80.4038 81.3257 79.9175C80.857 79.2216 80.3419 78.5581 79.7837 77.9315L77.3491 80.0877C77.5065 80.2536 77.6529 80.4296 77.7874 80.6146C77.9984 80.9064 78.1526 81.0928 78.5989 81.6846C79.0452 82.2763 79.6052 83.1598 79.9379 83.7354C80.3235 84.367 80.6521 85.0316 80.9199 85.7213C81.1415 86.3213 81.2966 86.9438 81.3825 87.5776C81.4511 87.9435 81.4757 88.3163 81.4555 88.6881C81.3987 88.7691 80.9443 88.5097 80.3275 88.2422C79.7107 87.9747 78.3717 87.4317 77.7224 87.2533C77.0732 87.075 75.9776 86.7508 75.2878 86.6048C74.598 86.4589 73.4781 86.2482 72.7153 86.1428C71.9524 86.0374 70.3861 85.8915 69.7288 85.8672C69.0714 85.8429 67.7973 85.8672 67.0183 85.8672C66.2392 85.8672 65.2816 85.9402 64.5836 85.9807C63.8857 86.0212 62.6359 86.0861 61.8974 86.1347L59.0895 86.3536L55.7216 86.6616L53.0273 86.8967Z" fill="#FCFCF8"/>
<path d="M104.533 77.8668C103.817 78.4788 103.165 79.1603 102.585 79.9014C101.585 81.28 100.767 82.781 100.15 84.3678C99.6196 85.6649 99.2094 87.008 98.925 88.3802C98.611 89.5397 98.7533 90.7753 99.3226 91.8333C99.5223 92.1116 99.7914 92.3328 100.103 92.475C100.415 92.6172 100.759 92.6755 101.1 92.6439C102.246 92.5982 103.362 92.2666 104.346 91.6793C105.923 90.7343 107.64 90.0474 109.434 89.6447C111.312 89.1416 113.244 88.8694 115.188 88.8341C117.972 88.7855 120.057 88.899 121.965 89.0449C123.872 89.1908 126.517 89.434 127.946 89.6123C129.374 89.7906 130.624 90.0014 130.624 90.0014L131.127 86.759C131.127 86.759 128.124 86.3213 125.6 86.0862C123.076 85.8512 120.082 85.5512 117.671 85.5674C115.051 85.5106 112.431 85.7088 109.848 86.1592C107.521 86.7136 105.25 87.4815 103.064 88.4532C102.845 88.4937 102.796 88.518 102.642 88.4532C102.488 88.3883 102.471 87.6426 102.577 87.3264C102.885 86.0872 103.36 84.8955 103.989 83.7841C104.518 82.8053 105.152 81.8867 105.88 81.0443C106.127 80.7522 106.399 80.4811 106.691 80.2337L104.533 77.8668Z" fill="#FCFCF8"/>
<path d="M90.3721 88.2342C90.3721 88.2342 89.869 81.8791 88.7491 79.4879C87.4019 76.586 82.0133 71.4792 82.0133 71.4792L69.3695 71.998L64.1351 81.6197L61.2623 80.0715L65.5878 72.152L59.485 72.3709L59.3633 69.1285L78.9863 68.4071L68.063 57.8694L70.2947 55.4376L79.879 64.6865L81.1044 58.9313L84.245 59.5797L82.622 67.4425C82.622 67.4425 86.1035 70.9929 87.6454 72.7113C89.4713 74.7459 90.7941 76.5211 90.7941 76.5211L90.3721 88.2342Z" fill="#FCFCF8"/>
<path d="M93.611 88.0882C93.8236 85.4457 94.4223 82.8486 95.3883 80.3795C97.2792 75.9293 102.376 71.3252 102.376 71.3252L115.466 71.9736L120.668 81.5954L123.541 80.0471L119.239 72.1276L124.88 72.3789L125.042 69.1366L105.46 68.2692L112.155 61.9304L116.561 57.8775L114.378 55.4457L109.509 59.9445L104.396 64.6783L103.252 58.9312L100.071 59.5797L101.621 67.4181L97.1007 72.1114C95.5591 73.7377 94.1986 75.526 93.043 77.4451L93.611 88.0882Z" fill="#FCFCF8"/>
<path d="M127.25 23.2006C136.582 28.2036 144.73 35.15 151.143 43.5701C157.555 51.9902 162.082 61.6875 164.418 72.0063L167.916 71.1957C165.465 60.3931 160.718 50.2427 153.998 41.4321C147.277 32.6214 138.739 25.3562 128.962 20.1284L127.25 23.2006Z" fill="#FCFCF8"/>
<path d="M20.2407 72.3466C22.5127 62.0847 26.9505 52.4252 33.2579 44.0131C39.5653 35.6009 47.597 28.6298 56.8167 23.5652L55.2829 20.6389C45.6686 25.9434 37.295 33.2313 30.7185 42.0181C24.1421 50.8048 19.5136 60.8892 17.1406 71.6008L20.2407 72.3466Z" fill="#FCFCF8"/>
<path d="M129.457 18.6936C139.43 24.0386 148.131 31.4687 154.969 40.4773C161.806 49.4859 166.618 59.8612 169.076 70.8957L172.712 70.0851C170.091 58.571 165.023 47.7541 157.851 38.3671C150.68 28.9802 141.572 21.2425 131.145 15.6782L129.457 18.6936Z" fill="#FCFCF8"/>
<path d="M15.5182 71.2685C17.8991 60.3368 22.5882 50.0386 29.2721 41.0616C35.956 32.0846 44.4809 24.6356 54.2772 19.2123L52.6541 16.1564C42.4119 21.8011 33.4894 29.5581 26.4793 38.9121C19.4693 48.2661 14.5322 59.0029 11.9961 70.4093L15.5182 71.2685Z" fill="#FCFCF8"/>
</g>
<defs>
<clipPath id="clip0_682_2064">
<rect width="184" height="180" fill="white" transform="translate(0 0.187744)"/>
</clipPath>
</defs>
</svg>
